<?xml version="1.0" encoding="utf-8"?>
<!DOCTYPE svg PUBLIC "-//W3C//DTD SVG 1.1//EN" "http://www.w3.org/Graphics/SVG/1.1/DTD/svg11.dtd">
<svg version="1.1" id="Layer_1" xmlns="http://www.w3.org/2000/svg" xmlns:xlink="http://www.w3.org/1999/xlink" x="0px" y="0px"
width="870px" height="870px" viewBox="0 0 870 870" enable-background="new 0 0 870 870" xml:space="preserve">
<rect x="0" y="0" width="870" height="870" fill="rgb(0,153,255)" /><g transform="translate(60,60)"><g transform="translate(240,0) scale(0.3,0.3)"><g transform="" style="fill: rgb(255, 255, 255);">
<g>
	<circle cx="50" cy="50" r="30"/>
</g>
</g></g><g transform="translate(330,0) scale(0.3,0.3)"><g transform="" style="fill: rgb(255, 255, 255);">
<g>
	<circle cx="50" cy="50" r="30"/>
</g>
</g></g><g transform="translate(390,0) scale(0.3,0.3)"><g transform="" style="fill: rgb(255, 255, 255);">
<g>
	<circle cx="50" cy="50" r="30"/>
</g>
</g></g><g transform="translate(420,0) scale(0.3,0.3)"><g transform="" style="fill: rgb(255, 255, 255);">
<g>
	<circle cx="50" cy="50" r="30"/>
</g>
</g></g><g transform="translate(240,30) scale(0.3,0.3)"><g transform="" style="fill: rgb(255, 255, 255);">
<g>
	<circle cx="50" cy="50" r="30"/>
</g>
</g></g><g transform="translate(270,30) scale(0.3,0.3)"><g transform="" style="fill: rgb(255, 255, 255);">
<g>
	<circle cx="50" cy="50" r="30"/>
</g>
</g></g><g transform="translate(300,30) scale(0.3,0.3)"><g transform="" style="fill: rgb(255, 255, 255);">
<g>
	<circle cx="50" cy="50" r="30"/>
</g>
</g></g><g transform="translate(360,30) scale(0.3,0.3)"><g transform="" style="fill: rgb(255, 255, 255);">
<g>
	<circle cx="50" cy="50" r="30"/>
</g>
</g></g><g transform="translate(390,30) scale(0.3,0.3)"><g transform="" style="fill: rgb(255, 255, 255);">
<g>
	<circle cx="50" cy="50" r="30"/>
</g>
</g></g><g transform="translate(240,60) scale(0.3,0.3)"><g transform="" style="fill: rgb(255, 255, 255);">
<g>
	<circle cx="50" cy="50" r="30"/>
</g>
</g></g><g transform="translate(330,60) scale(0.3,0.3)"><g transform="" style="fill: rgb(255, 255, 255);">
<g>
	<circle cx="50" cy="50" r="30"/>
</g>
</g></g><g transform="translate(390,60) scale(0.3,0.3)"><g transform="" style="fill: rgb(255, 255, 255);">
<g>
	<circle cx="50" cy="50" r="30"/>
</g>
</g></g><g transform="translate(420,60) scale(0.3,0.3)"><g transform="" style="fill: rgb(255, 255, 255);">
<g>
	<circle cx="50" cy="50" r="30"/>
</g>
</g></g><g transform="translate(450,60) scale(0.3,0.3)"><g transform="" style="fill: rgb(255, 255, 255);">
<g>
	<circle cx="50" cy="50" r="30"/>
</g>
</g></g><g transform="translate(270,90) scale(0.3,0.3)"><g transform="" style="fill: rgb(255, 255, 255);">
<g>
	<circle cx="50" cy="50" r="30"/>
</g>
</g></g><g transform="translate(300,90) scale(0.3,0.3)"><g transform="" style="fill: rgb(255, 255, 255);">
<g>
	<circle cx="50" cy="50" r="30"/>
</g>
</g></g><g transform="translate(330,90) scale(0.3,0.3)"><g transform="" style="fill: rgb(255, 255, 255);">
<g>
	<circle cx="50" cy="50" r="30"/>
</g>
</g></g><g transform="translate(360,90) scale(0.3,0.3)"><g transform="" style="fill: rgb(255, 255, 255);">
<g>
	<circle cx="50" cy="50" r="30"/>
</g>
</g></g><g transform="translate(390,90) scale(0.3,0.3)"><g transform="" style="fill: rgb(255, 255, 255);">
<g>
	<circle cx="50" cy="50" r="30"/>
</g>
</g></g><g transform="translate(420,90) scale(0.3,0.3)"><g transform="" style="fill: rgb(255, 255, 255);">
<g>
	<circle cx="50" cy="50" r="30"/>
</g>
</g></g><g transform="translate(450,90) scale(0.3,0.3)"><g transform="" style="fill: rgb(255, 255, 255);">
<g>
	<circle cx="50" cy="50" r="30"/>
</g>
</g></g><g transform="translate(480,90) scale(0.3,0.3)"><g transform="" style="fill: rgb(255, 255, 255);">
<g>
	<circle cx="50" cy="50" r="30"/>
</g>
</g></g><g transform="translate(240,120) scale(0.3,0.3)"><g transform="" style="fill: rgb(255, 255, 255);">
<g>
	<circle cx="50" cy="50" r="30"/>
</g>
</g></g><g transform="translate(300,120) scale(0.3,0.3)"><g transform="" style="fill: rgb(255, 255, 255);">
<g>
	<circle cx="50" cy="50" r="30"/>
</g>
</g></g><g transform="translate(390,120) scale(0.3,0.3)"><g transform="" style="fill: rgb(255, 255, 255);">
<g>
	<circle cx="50" cy="50" r="30"/>
</g>
</g></g><g transform="translate(420,120) scale(0.3,0.3)"><g transform="" style="fill: rgb(255, 255, 255);">
<g>
	<circle cx="50" cy="50" r="30"/>
</g>
</g></g><g transform="translate(480,120) scale(0.3,0.3)"><g transform="" style="fill: rgb(255, 255, 255);">
<g>
	<circle cx="50" cy="50" r="30"/>
</g>
</g></g><g transform="translate(270,150) scale(0.3,0.3)"><g transform="" style="fill: rgb(255, 255, 255);">
<g>
	<circle cx="50" cy="50" r="30"/>
</g>
</g></g><g transform="translate(300,150) scale(0.3,0.3)"><g transform="" style="fill: rgb(255, 255, 255);">
<g>
	<circle cx="50" cy="50" r="30"/>
</g>
</g></g><g transform="translate(330,150) scale(0.3,0.3)"><g transform="" style="fill: rgb(255, 255, 255);">
<g>
	<circle cx="50" cy="50" r="30"/>
</g>
</g></g><g transform="translate(360,150) scale(0.3,0.3)"><g transform="" style="fill: rgb(255, 255, 255);">
<g>
	<circle cx="50" cy="50" r="30"/>
</g>
</g></g><g transform="translate(390,150) scale(0.3,0.3)"><g transform="" style="fill: rgb(255, 255, 255);">
<g>
	<circle cx="50" cy="50" r="30"/>
</g>
</g></g><g transform="translate(420,150) scale(0.3,0.3)"><g transform="" style="fill: rgb(255, 255, 255);">
<g>
	<circle cx="50" cy="50" r="30"/>
</g>
</g></g><g transform="translate(240,180) scale(0.3,0.3)"><g transform="" style="fill: rgb(255, 255, 255);">
<g>
	<circle cx="50" cy="50" r="30"/>
</g>
</g></g><g transform="translate(300,180) scale(0.3,0.3)"><g transform="" style="fill: rgb(255, 255, 255);">
<g>
	<circle cx="50" cy="50" r="30"/>
</g>
</g></g><g transform="translate(360,180) scale(0.3,0.3)"><g transform="" style="fill: rgb(255, 255, 255);">
<g>
	<circle cx="50" cy="50" r="30"/>
</g>
</g></g><g transform="translate(420,180) scale(0.3,0.3)"><g transform="" style="fill: rgb(255, 255, 255);">
<g>
	<circle cx="50" cy="50" r="30"/>
</g>
</g></g><g transform="translate(480,180) scale(0.3,0.3)"><g transform="" style="fill: rgb(255, 255, 255);">
<g>
	<circle cx="50" cy="50" r="30"/>
</g>
</g></g><g transform="translate(270,210) scale(0.3,0.3)"><g transform="" style="fill: rgb(255, 255, 255);">
<g>
	<circle cx="50" cy="50" r="30"/>
</g>
</g></g><g transform="translate(360,210) scale(0.3,0.3)"><g transform="" style="fill: rgb(255, 255, 255);">
<g>
	<circle cx="50" cy="50" r="30"/>
</g>
</g></g><g transform="translate(390,210) scale(0.3,0.3)"><g transform="" style="fill: rgb(255, 255, 255);">
<g>
	<circle cx="50" cy="50" r="30"/>
</g>
</g></g><g transform="translate(420,210) scale(0.3,0.3)"><g transform="" style="fill: rgb(255, 255, 255);">
<g>
	<circle cx="50" cy="50" r="30"/>
</g>
</g></g><g transform="translate(450,210) scale(0.3,0.3)"><g transform="" style="fill: rgb(255, 255, 255);">
<g>
	<circle cx="50" cy="50" r="30"/>
</g>
</g></g><g transform="translate(480,210) scale(0.3,0.3)"><g transform="" style="fill: rgb(255, 255, 255);">
<g>
	<circle cx="50" cy="50" r="30"/>
</g>
</g></g><g transform="translate(0,240) scale(0.3,0.3)"><g transform="" style="fill: rgb(255, 255, 255);">
<g>
	<circle cx="50" cy="50" r="30"/>
</g>
</g></g><g transform="translate(90,240) scale(0.3,0.3)"><g transform="" style="fill: rgb(255, 255, 255);">
<g>
	<circle cx="50" cy="50" r="30"/>
</g>
</g></g><g transform="translate(120,240) scale(0.3,0.3)"><g transform="" style="fill: rgb(255, 255, 255);">
<g>
	<circle cx="50" cy="50" r="30"/>
</g>
</g></g><g transform="translate(150,240) scale(0.3,0.3)"><g transform="" style="fill: rgb(255, 255, 255);">
<g>
	<circle cx="50" cy="50" r="30"/>
</g>
</g></g><g transform="translate(180,240) scale(0.3,0.3)"><g transform="" style="fill: rgb(255, 255, 255);">
<g>
	<circle cx="50" cy="50" r="30"/>
</g>
</g></g><g transform="translate(210,240) scale(0.3,0.3)"><g transform="" style="fill: rgb(255, 255, 255);">
<g>
	<circle cx="50" cy="50" r="30"/>
</g>
</g></g><g transform="translate(240,240) scale(0.3,0.3)"><g transform="" style="fill: rgb(255, 255, 255);">
<g>
	<circle cx="50" cy="50" r="30"/>
</g>
</g></g><g transform="translate(270,240) scale(0.3,0.3)"><g transform="" style="fill: rgb(255, 255, 255);">
<g>
	<circle cx="50" cy="50" r="30"/>
</g>
</g></g><g transform="translate(330,240) scale(0.3,0.3)"><g transform="" style="fill: rgb(255, 255, 255);">
<g>
	<circle cx="50" cy="50" r="30"/>
</g>
</g></g><g transform="translate(360,240) scale(0.3,0.3)"><g transform="" style="fill: rgb(255, 255, 255);">
<g>
	<circle cx="50" cy="50" r="30"/>
</g>
</g></g><g transform="translate(420,240) scale(0.3,0.3)"><g transform="" style="fill: rgb(255, 255, 255);">
<g>
	<circle cx="50" cy="50" r="30"/>
</g>
</g></g><g transform="translate(450,240) scale(0.3,0.3)"><g transform="" style="fill: rgb(255, 255, 255);">
<g>
	<circle cx="50" cy="50" r="30"/>
</g>
</g></g><g transform="translate(480,240) scale(0.3,0.3)"><g transform="" style="fill: rgb(255, 255, 255);">
<g>
	<circle cx="50" cy="50" r="30"/>
</g>
</g></g><g transform="translate(510,240) scale(0.3,0.3)"><g transform="" style="fill: rgb(255, 255, 255);">
<g>
	<circle cx="50" cy="50" r="30"/>
</g>
</g></g><g transform="translate(600,240) scale(0.3,0.3)"><g transform="" style="fill: rgb(255, 255, 255);">
<g>
	<circle cx="50" cy="50" r="30"/>
</g>
</g></g><g transform="translate(660,240) scale(0.3,0.3)"><g transform="" style="fill: rgb(255, 255, 255);">
<g>
	<circle cx="50" cy="50" r="30"/>
</g>
</g></g><g transform="translate(690,240) scale(0.3,0.3)"><g transform="" style="fill: rgb(255, 255, 255);">
<g>
	<circle cx="50" cy="50" r="30"/>
</g>
</g></g><g transform="translate(720,240) scale(0.3,0.3)"><g transform="" style="fill: rgb(255, 255, 255);">
<g>
	<circle cx="50" cy="50" r="30"/>
</g>
</g></g><g transform="translate(30,270) scale(0.3,0.3)"><g transform="" style="fill: rgb(255, 255, 255);">
<g>
	<circle cx="50" cy="50" r="30"/>
</g>
</g></g><g transform="translate(60,270) scale(0.3,0.3)"><g transform="" style="fill: rgb(255, 255, 255);">
<g>
	<circle cx="50" cy="50" r="30"/>
</g>
</g></g><g transform="translate(90,270) scale(0.3,0.3)"><g transform="" style="fill: rgb(255, 255, 255);">
<g>
	<circle cx="50" cy="50" r="30"/>
</g>
</g></g><g transform="translate(120,270) scale(0.3,0.3)"><g transform="" style="fill: rgb(255, 255, 255);">
<g>
	<circle cx="50" cy="50" r="30"/>
</g>
</g></g><g transform="translate(210,270) scale(0.3,0.3)"><g transform="" style="fill: rgb(255, 255, 255);">
<g>
	<circle cx="50" cy="50" r="30"/>
</g>
</g></g><g transform="translate(270,270) scale(0.3,0.3)"><g transform="" style="fill: rgb(255, 255, 255);">
<g>
	<circle cx="50" cy="50" r="30"/>
</g>
</g></g><g transform="translate(300,270) scale(0.3,0.3)"><g transform="" style="fill: rgb(255, 255, 255);">
<g>
	<circle cx="50" cy="50" r="30"/>
</g>
</g></g><g transform="translate(330,270) scale(0.3,0.3)"><g transform="" style="fill: rgb(255, 255, 255);">
<g>
	<circle cx="50" cy="50" r="30"/>
</g>
</g></g><g transform="translate(420,270) scale(0.3,0.3)"><g transform="" style="fill: rgb(255, 255, 255);">
<g>
	<circle cx="50" cy="50" r="30"/>
</g>
</g></g><g transform="translate(450,270) scale(0.3,0.3)"><g transform="" style="fill: rgb(255, 255, 255);">
<g>
	<circle cx="50" cy="50" r="30"/>
</g>
</g></g><g transform="translate(510,270) scale(0.3,0.3)"><g transform="" style="fill: rgb(255, 255, 255);">
<g>
	<circle cx="50" cy="50" r="30"/>
</g>
</g></g><g transform="translate(570,270) scale(0.3,0.3)"><g transform="" style="fill: rgb(255, 255, 255);">
<g>
	<circle cx="50" cy="50" r="30"/>
</g>
</g></g><g transform="translate(600,270) scale(0.3,0.3)"><g transform="" style="fill: rgb(255, 255, 255);">
<g>
	<circle cx="50" cy="50" r="30"/>
</g>
</g></g><g transform="translate(630,270) scale(0.3,0.3)"><g transform="" style="fill: rgb(255, 255, 255);">
<g>
	<circle cx="50" cy="50" r="30"/>
</g>
</g></g><g transform="translate(660,270) scale(0.3,0.3)"><g transform="" style="fill: rgb(255, 255, 255);">
<g>
	<circle cx="50" cy="50" r="30"/>
</g>
</g></g><g transform="translate(690,270) scale(0.3,0.3)"><g transform="" style="fill: rgb(255, 255, 255);">
<g>
	<circle cx="50" cy="50" r="30"/>
</g>
</g></g><g transform="translate(0,300) scale(0.3,0.3)"><g transform="" style="fill: rgb(255, 255, 255);">
<g>
	<circle cx="50" cy="50" r="30"/>
</g>
</g></g><g transform="translate(30,300) scale(0.3,0.3)"><g transform="" style="fill: rgb(255, 255, 255);">
<g>
	<circle cx="50" cy="50" r="30"/>
</g>
</g></g><g transform="translate(90,300) scale(0.3,0.3)"><g transform="" style="fill: rgb(255, 255, 255);">
<g>
	<circle cx="50" cy="50" r="30"/>
</g>
</g></g><g transform="translate(120,300) scale(0.3,0.3)"><g transform="" style="fill: rgb(255, 255, 255);">
<g>
	<circle cx="50" cy="50" r="30"/>
</g>
</g></g><g transform="translate(150,300) scale(0.3,0.3)"><g transform="" style="fill: rgb(255, 255, 255);">
<g>
	<circle cx="50" cy="50" r="30"/>
</g>
</g></g><g transform="translate(180,300) scale(0.3,0.3)"><g transform="" style="fill: rgb(255, 255, 255);">
<g>
	<circle cx="50" cy="50" r="30"/>
</g>
</g></g><g transform="translate(210,300) scale(0.3,0.3)"><g transform="" style="fill: rgb(255, 255, 255);">
<g>
	<circle cx="50" cy="50" r="30"/>
</g>
</g></g><g transform="translate(390,300) scale(0.3,0.3)"><g transform="" style="fill: rgb(255, 255, 255);">
<g>
	<circle cx="50" cy="50" r="30"/>
</g>
</g></g><g transform="translate(420,300) scale(0.3,0.3)"><g transform="" style="fill: rgb(255, 255, 255);">
<g>
	<circle cx="50" cy="50" r="30"/>
</g>
</g></g><g transform="translate(450,300) scale(0.3,0.3)"><g transform="" style="fill: rgb(255, 255, 255);">
<g>
	<circle cx="50" cy="50" r="30"/>
</g>
</g></g><g transform="translate(480,300) scale(0.3,0.3)"><g transform="" style="fill: rgb(255, 255, 255);">
<g>
	<circle cx="50" cy="50" r="30"/>
</g>
</g></g><g transform="translate(540,300) scale(0.3,0.3)"><g transform="" style="fill: rgb(255, 255, 255);">
<g>
	<circle cx="50" cy="50" r="30"/>
</g>
</g></g><g transform="translate(570,300) scale(0.3,0.3)"><g transform="" style="fill: rgb(255, 255, 255);">
<g>
	<circle cx="50" cy="50" r="30"/>
</g>
</g></g><g transform="translate(630,300) scale(0.3,0.3)"><g transform="" style="fill: rgb(255, 255, 255);">
<g>
	<circle cx="50" cy="50" r="30"/>
</g>
</g></g><g transform="translate(720,300) scale(0.3,0.3)"><g transform="" style="fill: rgb(255, 255, 255);">
<g>
	<circle cx="50" cy="50" r="30"/>
</g>
</g></g><g transform="translate(30,330) scale(0.3,0.3)"><g transform="" style="fill: rgb(255, 255, 255);">
<g>
	<circle cx="50" cy="50" r="30"/>
</g>
</g></g><g transform="translate(60,330) scale(0.3,0.3)"><g transform="" style="fill: rgb(255, 255, 255);">
<g>
	<circle cx="50" cy="50" r="30"/>
</g>
</g></g><g transform="translate(90,330) scale(0.3,0.3)"><g transform="" style="fill: rgb(255, 255, 255);">
<g>
	<circle cx="50" cy="50" r="30"/>
</g>
</g></g><g transform="translate(210,330) scale(0.3,0.3)"><g transform="" style="fill: rgb(255, 255, 255);">
<g>
	<circle cx="50" cy="50" r="30"/>
</g>
</g></g><g transform="translate(240,330) scale(0.3,0.3)"><g transform="" style="fill: rgb(255, 255, 255);">
<g>
	<circle cx="50" cy="50" r="30"/>
</g>
</g></g><g transform="translate(270,330) scale(0.3,0.3)"><g transform="" style="fill: rgb(255, 255, 255);">
<g>
	<circle cx="50" cy="50" r="30"/>
</g>
</g></g><g transform="translate(300,330) scale(0.3,0.3)"><g transform="" style="fill: rgb(255, 255, 255);">
<g>
	<circle cx="50" cy="50" r="30"/>
</g>
</g></g><g transform="translate(420,330) scale(0.3,0.3)"><g transform="" style="fill: rgb(255, 255, 255);">
<g>
	<circle cx="50" cy="50" r="30"/>
</g>
</g></g><g transform="translate(450,330) scale(0.3,0.3)"><g transform="" style="fill: rgb(255, 255, 255);">
<g>
	<circle cx="50" cy="50" r="30"/>
</g>
</g></g><g transform="translate(570,330) scale(0.3,0.3)"><g transform="" style="fill: rgb(255, 255, 255);">
<g>
	<circle cx="50" cy="50" r="30"/>
</g>
</g></g><g transform="translate(630,330) scale(0.3,0.3)"><g transform="" style="fill: rgb(255, 255, 255);">
<g>
	<circle cx="50" cy="50" r="30"/>
</g>
</g></g><g transform="translate(660,330) scale(0.3,0.3)"><g transform="" style="fill: rgb(255, 255, 255);">
<g>
	<circle cx="50" cy="50" r="30"/>
</g>
</g></g><g transform="translate(690,330) scale(0.3,0.3)"><g transform="" style="fill: rgb(255, 255, 255);">
<g>
	<circle cx="50" cy="50" r="30"/>
</g>
</g></g><g transform="translate(720,330) scale(0.3,0.3)"><g transform="" style="fill: rgb(255, 255, 255);">
<g>
	<circle cx="50" cy="50" r="30"/>
</g>
</g></g><g transform="translate(60,360) scale(0.3,0.3)"><g transform="" style="fill: rgb(255, 255, 255);">
<g>
	<circle cx="50" cy="50" r="30"/>
</g>
</g></g><g transform="translate(150,360) scale(0.3,0.3)"><g transform="" style="fill: rgb(255, 255, 255);">
<g>
	<circle cx="50" cy="50" r="30"/>
</g>
</g></g><g transform="translate(180,360) scale(0.3,0.3)"><g transform="" style="fill: rgb(255, 255, 255);">
<g>
	<circle cx="50" cy="50" r="30"/>
</g>
</g></g><g transform="translate(210,360) scale(0.3,0.3)"><g transform="" style="fill: rgb(255, 255, 255);">
<g>
	<circle cx="50" cy="50" r="30"/>
</g>
</g></g><g transform="translate(270,360) scale(0.3,0.3)"><g transform="" style="fill: rgb(255, 255, 255);">
<g>
	<circle cx="50" cy="50" r="30"/>
</g>
</g></g><g transform="translate(360,360) scale(0.3,0.3)"><g transform="" style="fill: rgb(255, 255, 255);">
<g>
	<circle cx="50" cy="50" r="30"/>
</g>
</g></g><g transform="translate(480,360) scale(0.3,0.3)"><g transform="" style="fill: rgb(255, 255, 255);">
<g>
	<circle cx="50" cy="50" r="30"/>
</g>
</g></g><g transform="translate(540,360) scale(0.3,0.3)"><g transform="" style="fill: rgb(255, 255, 255);">
<g>
	<circle cx="50" cy="50" r="30"/>
</g>
</g></g><g transform="translate(720,360) scale(0.3,0.3)"><g transform="" style="fill: rgb(255, 255, 255);">
<g>
	<circle cx="50" cy="50" r="30"/>
</g>
</g></g><g transform="translate(0,390) scale(0.3,0.3)"><g transform="" style="fill: rgb(255, 255, 255);">
<g>
	<circle cx="50" cy="50" r="30"/>
</g>
</g></g><g transform="translate(30,390) scale(0.3,0.3)"><g transform="" style="fill: rgb(255, 255, 255);">
<g>
	<circle cx="50" cy="50" r="30"/>
</g>
</g></g><g transform="translate(60,390) scale(0.3,0.3)"><g transform="" style="fill: rgb(255, 255, 255);">
<g>
	<circle cx="50" cy="50" r="30"/>
</g>
</g></g><g transform="translate(120,390) scale(0.3,0.3)"><g transform="" style="fill: rgb(255, 255, 255);">
<g>
	<circle cx="50" cy="50" r="30"/>
</g>
</g></g><g transform="translate(150,390) scale(0.3,0.3)"><g transform="" style="fill: rgb(255, 255, 255);">
<g>
	<circle cx="50" cy="50" r="30"/>
</g>
</g></g><g transform="translate(210,390) scale(0.3,0.3)"><g transform="" style="fill: rgb(255, 255, 255);">
<g>
	<circle cx="50" cy="50" r="30"/>
</g>
</g></g><g transform="translate(420,390) scale(0.3,0.3)"><g transform="" style="fill: rgb(255, 255, 255);">
<g>
	<circle cx="50" cy="50" r="30"/>
</g>
</g></g><g transform="translate(450,390) scale(0.3,0.3)"><g transform="" style="fill: rgb(255, 255, 255);">
<g>
	<circle cx="50" cy="50" r="30"/>
</g>
</g></g><g transform="translate(480,390) scale(0.3,0.3)"><g transform="" style="fill: rgb(255, 255, 255);">
<g>
	<circle cx="50" cy="50" r="30"/>
</g>
</g></g><g transform="translate(510,390) scale(0.3,0.3)"><g transform="" style="fill: rgb(255, 255, 255);">
<g>
	<circle cx="50" cy="50" r="30"/>
</g>
</g></g><g transform="translate(600,390) scale(0.3,0.3)"><g transform="" style="fill: rgb(255, 255, 255);">
<g>
	<circle cx="50" cy="50" r="30"/>
</g>
</g></g><g transform="translate(690,390) scale(0.3,0.3)"><g transform="" style="fill: rgb(255, 255, 255);">
<g>
	<circle cx="50" cy="50" r="30"/>
</g>
</g></g><g transform="translate(0,420) scale(0.3,0.3)"><g transform="" style="fill: rgb(255, 255, 255);">
<g>
	<circle cx="50" cy="50" r="30"/>
</g>
</g></g><g transform="translate(30,420) scale(0.3,0.3)"><g transform="" style="fill: rgb(255, 255, 255);">
<g>
	<circle cx="50" cy="50" r="30"/>
</g>
</g></g><g transform="translate(60,420) scale(0.3,0.3)"><g transform="" style="fill: rgb(255, 255, 255);">
<g>
	<circle cx="50" cy="50" r="30"/>
</g>
</g></g><g transform="translate(90,420) scale(0.3,0.3)"><g transform="" style="fill: rgb(255, 255, 255);">
<g>
	<circle cx="50" cy="50" r="30"/>
</g>
</g></g><g transform="translate(120,420) scale(0.3,0.3)"><g transform="" style="fill: rgb(255, 255, 255);">
<g>
	<circle cx="50" cy="50" r="30"/>
</g>
</g></g><g transform="translate(150,420) scale(0.3,0.3)"><g transform="" style="fill: rgb(255, 255, 255);">
<g>
	<circle cx="50" cy="50" r="30"/>
</g>
</g></g><g transform="translate(180,420) scale(0.3,0.3)"><g transform="" style="fill: rgb(255, 255, 255);">
<g>
	<circle cx="50" cy="50" r="30"/>
</g>
</g></g><g transform="translate(240,420) scale(0.3,0.3)"><g transform="" style="fill: rgb(255, 255, 255);">
<g>
	<circle cx="50" cy="50" r="30"/>
</g>
</g></g><g transform="translate(270,420) scale(0.3,0.3)"><g transform="" style="fill: rgb(255, 255, 255);">
<g>
	<circle cx="50" cy="50" r="30"/>
</g>
</g></g><g transform="translate(330,420) scale(0.3,0.3)"><g transform="" style="fill: rgb(255, 255, 255);">
<g>
	<circle cx="50" cy="50" r="30"/>
</g>
</g></g><g transform="translate(360,420) scale(0.3,0.3)"><g transform="" style="fill: rgb(255, 255, 255);">
<g>
	<circle cx="50" cy="50" r="30"/>
</g>
</g></g><g transform="translate(420,420) scale(0.3,0.3)"><g transform="" style="fill: rgb(255, 255, 255);">
<g>
	<circle cx="50" cy="50" r="30"/>
</g>
</g></g><g transform="translate(450,420) scale(0.3,0.3)"><g transform="" style="fill: rgb(255, 255, 255);">
<g>
	<circle cx="50" cy="50" r="30"/>
</g>
</g></g><g transform="translate(510,420) scale(0.3,0.3)"><g transform="" style="fill: rgb(255, 255, 255);">
<g>
	<circle cx="50" cy="50" r="30"/>
</g>
</g></g><g transform="translate(540,420) scale(0.3,0.3)"><g transform="" style="fill: rgb(255, 255, 255);">
<g>
	<circle cx="50" cy="50" r="30"/>
</g>
</g></g><g transform="translate(600,420) scale(0.3,0.3)"><g transform="" style="fill: rgb(255, 255, 255);">
<g>
	<circle cx="50" cy="50" r="30"/>
</g>
</g></g><g transform="translate(630,420) scale(0.3,0.3)"><g transform="" style="fill: rgb(255, 255, 255);">
<g>
	<circle cx="50" cy="50" r="30"/>
</g>
</g></g><g transform="translate(660,420) scale(0.3,0.3)"><g transform="" style="fill: rgb(255, 255, 255);">
<g>
	<circle cx="50" cy="50" r="30"/>
</g>
</g></g><g transform="translate(690,420) scale(0.3,0.3)"><g transform="" style="fill: rgb(255, 255, 255);">
<g>
	<circle cx="50" cy="50" r="30"/>
</g>
</g></g><g transform="translate(720,420) scale(0.3,0.3)"><g transform="" style="fill: rgb(255, 255, 255);">
<g>
	<circle cx="50" cy="50" r="30"/>
</g>
</g></g><g transform="translate(0,450) scale(0.3,0.3)"><g transform="" style="fill: rgb(255, 255, 255);">
<g>
	<circle cx="50" cy="50" r="30"/>
</g>
</g></g><g transform="translate(60,450) scale(0.3,0.3)"><g transform="" style="fill: rgb(255, 255, 255);">
<g>
	<circle cx="50" cy="50" r="30"/>
</g>
</g></g><g transform="translate(120,450) scale(0.3,0.3)"><g transform="" style="fill: rgb(255, 255, 255);">
<g>
	<circle cx="50" cy="50" r="30"/>
</g>
</g></g><g transform="translate(150,450) scale(0.3,0.3)"><g transform="" style="fill: rgb(255, 255, 255);">
<g>
	<circle cx="50" cy="50" r="30"/>
</g>
</g></g><g transform="translate(210,450) scale(0.3,0.3)"><g transform="" style="fill: rgb(255, 255, 255);">
<g>
	<circle cx="50" cy="50" r="30"/>
</g>
</g></g><g transform="translate(270,450) scale(0.3,0.3)"><g transform="" style="fill: rgb(255, 255, 255);">
<g>
	<circle cx="50" cy="50" r="30"/>
</g>
</g></g><g transform="translate(330,450) scale(0.3,0.3)"><g transform="" style="fill: rgb(255, 255, 255);">
<g>
	<circle cx="50" cy="50" r="30"/>
</g>
</g></g><g transform="translate(450,450) scale(0.3,0.3)"><g transform="" style="fill: rgb(255, 255, 255);">
<g>
	<circle cx="50" cy="50" r="30"/>
</g>
</g></g><g transform="translate(510,450) scale(0.3,0.3)"><g transform="" style="fill: rgb(255, 255, 255);">
<g>
	<circle cx="50" cy="50" r="30"/>
</g>
</g></g><g transform="translate(570,450) scale(0.3,0.3)"><g transform="" style="fill: rgb(255, 255, 255);">
<g>
	<circle cx="50" cy="50" r="30"/>
</g>
</g></g><g transform="translate(630,450) scale(0.3,0.3)"><g transform="" style="fill: rgb(255, 255, 255);">
<g>
	<circle cx="50" cy="50" r="30"/>
</g>
</g></g><g transform="translate(660,450) scale(0.3,0.3)"><g transform="" style="fill: rgb(255, 255, 255);">
<g>
	<circle cx="50" cy="50" r="30"/>
</g>
</g></g><g transform="translate(720,450) scale(0.3,0.3)"><g transform="" style="fill: rgb(255, 255, 255);">
<g>
	<circle cx="50" cy="50" r="30"/>
</g>
</g></g><g transform="translate(0,480) scale(0.3,0.3)"><g transform="" style="fill: rgb(255, 255, 255);">
<g>
	<circle cx="50" cy="50" r="30"/>
</g>
</g></g><g transform="translate(60,480) scale(0.3,0.3)"><g transform="" style="fill: rgb(255, 255, 255);">
<g>
	<circle cx="50" cy="50" r="30"/>
</g>
</g></g><g transform="translate(150,480) scale(0.3,0.3)"><g transform="" style="fill: rgb(255, 255, 255);">
<g>
	<circle cx="50" cy="50" r="30"/>
</g>
</g></g><g transform="translate(180,480) scale(0.3,0.3)"><g transform="" style="fill: rgb(255, 255, 255);">
<g>
	<circle cx="50" cy="50" r="30"/>
</g>
</g></g><g transform="translate(210,480) scale(0.3,0.3)"><g transform="" style="fill: rgb(255, 255, 255);">
<g>
	<circle cx="50" cy="50" r="30"/>
</g>
</g></g><g transform="translate(270,480) scale(0.3,0.3)"><g transform="" style="fill: rgb(255, 255, 255);">
<g>
	<circle cx="50" cy="50" r="30"/>
</g>
</g></g><g transform="translate(390,480) scale(0.3,0.3)"><g transform="" style="fill: rgb(255, 255, 255);">
<g>
	<circle cx="50" cy="50" r="30"/>
</g>
</g></g><g transform="translate(480,480) scale(0.3,0.3)"><g transform="" style="fill: rgb(255, 255, 255);">
<g>
	<circle cx="50" cy="50" r="30"/>
</g>
</g></g><g transform="translate(510,480) scale(0.3,0.3)"><g transform="" style="fill: rgb(255, 255, 255);">
<g>
	<circle cx="50" cy="50" r="30"/>
</g>
</g></g><g transform="translate(540,480) scale(0.3,0.3)"><g transform="" style="fill: rgb(255, 255, 255);">
<g>
	<circle cx="50" cy="50" r="30"/>
</g>
</g></g><g transform="translate(570,480) scale(0.3,0.3)"><g transform="" style="fill: rgb(255, 255, 255);">
<g>
	<circle cx="50" cy="50" r="30"/>
</g>
</g></g><g transform="translate(600,480) scale(0.3,0.3)"><g transform="" style="fill: rgb(255, 255, 255);">
<g>
	<circle cx="50" cy="50" r="30"/>
</g>
</g></g><g transform="translate(660,480) scale(0.3,0.3)"><g transform="" style="fill: rgb(255, 255, 255);">
<g>
	<circle cx="50" cy="50" r="30"/>
</g>
</g></g><g transform="translate(690,480) scale(0.3,0.3)"><g transform="" style="fill: rgb(255, 255, 255);">
<g>
	<circle cx="50" cy="50" r="30"/>
</g>
</g></g><g transform="translate(240,510) scale(0.3,0.3)"><g transform="" style="fill: rgb(255, 255, 255);">
<g>
	<circle cx="50" cy="50" r="30"/>
</g>
</g></g><g transform="translate(270,510) scale(0.3,0.3)"><g transform="" style="fill: rgb(255, 255, 255);">
<g>
	<circle cx="50" cy="50" r="30"/>
</g>
</g></g><g transform="translate(330,510) scale(0.3,0.3)"><g transform="" style="fill: rgb(255, 255, 255);">
<g>
	<circle cx="50" cy="50" r="30"/>
</g>
</g></g><g transform="translate(360,510) scale(0.3,0.3)"><g transform="" style="fill: rgb(255, 255, 255);">
<g>
	<circle cx="50" cy="50" r="30"/>
</g>
</g></g><g transform="translate(390,510) scale(0.3,0.3)"><g transform="" style="fill: rgb(255, 255, 255);">
<g>
	<circle cx="50" cy="50" r="30"/>
</g>
</g></g><g transform="translate(480,510) scale(0.3,0.3)"><g transform="" style="fill: rgb(255, 255, 255);">
<g>
	<circle cx="50" cy="50" r="30"/>
</g>
</g></g><g transform="translate(600,510) scale(0.3,0.3)"><g transform="" style="fill: rgb(255, 255, 255);">
<g>
	<circle cx="50" cy="50" r="30"/>
</g>
</g></g><g transform="translate(660,510) scale(0.3,0.3)"><g transform="" style="fill: rgb(255, 255, 255);">
<g>
	<circle cx="50" cy="50" r="30"/>
</g>
</g></g><g transform="translate(690,510) scale(0.3,0.3)"><g transform="" style="fill: rgb(255, 255, 255);">
<g>
	<circle cx="50" cy="50" r="30"/>
</g>
</g></g><g transform="translate(240,540) scale(0.3,0.3)"><g transform="" style="fill: rgb(255, 255, 255);">
<g>
	<circle cx="50" cy="50" r="30"/>
</g>
</g></g><g transform="translate(270,540) scale(0.3,0.3)"><g transform="" style="fill: rgb(255, 255, 255);">
<g>
	<circle cx="50" cy="50" r="30"/>
</g>
</g></g><g transform="translate(300,540) scale(0.3,0.3)"><g transform="" style="fill: rgb(255, 255, 255);">
<g>
	<circle cx="50" cy="50" r="30"/>
</g>
</g></g><g transform="translate(330,540) scale(0.3,0.3)"><g transform="" style="fill: rgb(255, 255, 255);">
<g>
	<circle cx="50" cy="50" r="30"/>
</g>
</g></g><g transform="translate(390,540) scale(0.3,0.3)"><g transform="" style="fill: rgb(255, 255, 255);">
<g>
	<circle cx="50" cy="50" r="30"/>
</g>
</g></g><g transform="translate(480,540) scale(0.3,0.3)"><g transform="" style="fill: rgb(255, 255, 255);">
<g>
	<circle cx="50" cy="50" r="30"/>
</g>
</g></g><g transform="translate(540,540) scale(0.3,0.3)"><g transform="" style="fill: rgb(255, 255, 255);">
<g>
	<circle cx="50" cy="50" r="30"/>
</g>
</g></g><g transform="translate(600,540) scale(0.3,0.3)"><g transform="" style="fill: rgb(255, 255, 255);">
<g>
	<circle cx="50" cy="50" r="30"/>
</g>
</g></g><g transform="translate(720,540) scale(0.3,0.3)"><g transform="" style="fill: rgb(255, 255, 255);">
<g>
	<circle cx="50" cy="50" r="30"/>
</g>
</g></g><g transform="translate(240,570) scale(0.3,0.3)"><g transform="" style="fill: rgb(255, 255, 255);">
<g>
	<circle cx="50" cy="50" r="30"/>
</g>
</g></g><g transform="translate(270,570) scale(0.3,0.3)"><g transform="" style="fill: rgb(255, 255, 255);">
<g>
	<circle cx="50" cy="50" r="30"/>
</g>
</g></g><g transform="translate(300,570) scale(0.3,0.3)"><g transform="" style="fill: rgb(255, 255, 255);">
<g>
	<circle cx="50" cy="50" r="30"/>
</g>
</g></g><g transform="translate(360,570) scale(0.3,0.3)"><g transform="" style="fill: rgb(255, 255, 255);">
<g>
	<circle cx="50" cy="50" r="30"/>
</g>
</g></g><g transform="translate(390,570) scale(0.3,0.3)"><g transform="" style="fill: rgb(255, 255, 255);">
<g>
	<circle cx="50" cy="50" r="30"/>
</g>
</g></g><g transform="translate(450,570) scale(0.3,0.3)"><g transform="" style="fill: rgb(255, 255, 255);">
<g>
	<circle cx="50" cy="50" r="30"/>
</g>
</g></g><g transform="translate(480,570) scale(0.3,0.3)"><g transform="" style="fill: rgb(255, 255, 255);">
<g>
	<circle cx="50" cy="50" r="30"/>
</g>
</g></g><g transform="translate(600,570) scale(0.3,0.3)"><g transform="" style="fill: rgb(255, 255, 255);">
<g>
	<circle cx="50" cy="50" r="30"/>
</g>
</g></g><g transform="translate(690,570) scale(0.3,0.3)"><g transform="" style="fill: rgb(255, 255, 255);">
<g>
	<circle cx="50" cy="50" r="30"/>
</g>
</g></g><g transform="translate(240,600) scale(0.3,0.3)"><g transform="" style="fill: rgb(255, 255, 255);">
<g>
	<circle cx="50" cy="50" r="30"/>
</g>
</g></g><g transform="translate(270,600) scale(0.3,0.3)"><g transform="" style="fill: rgb(255, 255, 255);">
<g>
	<circle cx="50" cy="50" r="30"/>
</g>
</g></g><g transform="translate(360,600) scale(0.3,0.3)"><g transform="" style="fill: rgb(255, 255, 255);">
<g>
	<circle cx="50" cy="50" r="30"/>
</g>
</g></g><g transform="translate(450,600) scale(0.3,0.3)"><g transform="" style="fill: rgb(255, 255, 255);">
<g>
	<circle cx="50" cy="50" r="30"/>
</g>
</g></g><g transform="translate(480,600) scale(0.3,0.3)"><g transform="" style="fill: rgb(255, 255, 255);">
<g>
	<circle cx="50" cy="50" r="30"/>
</g>
</g></g><g transform="translate(510,600) scale(0.3,0.3)"><g transform="" style="fill: rgb(255, 255, 255);">
<g>
	<circle cx="50" cy="50" r="30"/>
</g>
</g></g><g transform="translate(540,600) scale(0.3,0.3)"><g transform="" style="fill: rgb(255, 255, 255);">
<g>
	<circle cx="50" cy="50" r="30"/>
</g>
</g></g><g transform="translate(570,600) scale(0.3,0.3)"><g transform="" style="fill: rgb(255, 255, 255);">
<g>
	<circle cx="50" cy="50" r="30"/>
</g>
</g></g><g transform="translate(600,600) scale(0.3,0.3)"><g transform="" style="fill: rgb(255, 255, 255);">
<g>
	<circle cx="50" cy="50" r="30"/>
</g>
</g></g><g transform="translate(690,600) scale(0.3,0.3)"><g transform="" style="fill: rgb(255, 255, 255);">
<g>
	<circle cx="50" cy="50" r="30"/>
</g>
</g></g><g transform="translate(720,600) scale(0.3,0.3)"><g transform="" style="fill: rgb(255, 255, 255);">
<g>
	<circle cx="50" cy="50" r="30"/>
</g>
</g></g><g transform="translate(240,630) scale(0.3,0.3)"><g transform="" style="fill: rgb(255, 255, 255);">
<g>
	<circle cx="50" cy="50" r="30"/>
</g>
</g></g><g transform="translate(390,630) scale(0.3,0.3)"><g transform="" style="fill: rgb(255, 255, 255);">
<g>
	<circle cx="50" cy="50" r="30"/>
</g>
</g></g><g transform="translate(420,630) scale(0.3,0.3)"><g transform="" style="fill: rgb(255, 255, 255);">
<g>
	<circle cx="50" cy="50" r="30"/>
</g>
</g></g><g transform="translate(450,630) scale(0.3,0.3)"><g transform="" style="fill: rgb(255, 255, 255);">
<g>
	<circle cx="50" cy="50" r="30"/>
</g>
</g></g><g transform="translate(540,630) scale(0.3,0.3)"><g transform="" style="fill: rgb(255, 255, 255);">
<g>
	<circle cx="50" cy="50" r="30"/>
</g>
</g></g><g transform="translate(690,630) scale(0.3,0.3)"><g transform="" style="fill: rgb(255, 255, 255);">
<g>
	<circle cx="50" cy="50" r="30"/>
</g>
</g></g><g transform="translate(720,630) scale(0.3,0.3)"><g transform="" style="fill: rgb(255, 255, 255);">
<g>
	<circle cx="50" cy="50" r="30"/>
</g>
</g></g><g transform="translate(270,660) scale(0.3,0.3)"><g transform="" style="fill: rgb(255, 255, 255);">
<g>
	<circle cx="50" cy="50" r="30"/>
</g>
</g></g><g transform="translate(300,660) scale(0.3,0.3)"><g transform="" style="fill: rgb(255, 255, 255);">
<g>
	<circle cx="50" cy="50" r="30"/>
</g>
</g></g><g transform="translate(360,660) scale(0.3,0.3)"><g transform="" style="fill: rgb(255, 255, 255);">
<g>
	<circle cx="50" cy="50" r="30"/>
</g>
</g></g><g transform="translate(390,660) scale(0.3,0.3)"><g transform="" style="fill: rgb(255, 255, 255);">
<g>
	<circle cx="50" cy="50" r="30"/>
</g>
</g></g><g transform="translate(510,660) scale(0.3,0.3)"><g transform="" style="fill: rgb(255, 255, 255);">
<g>
	<circle cx="50" cy="50" r="30"/>
</g>
</g></g><g transform="translate(600,660) scale(0.3,0.3)"><g transform="" style="fill: rgb(255, 255, 255);">
<g>
	<circle cx="50" cy="50" r="30"/>
</g>
</g></g><g transform="translate(630,660) scale(0.3,0.3)"><g transform="" style="fill: rgb(255, 255, 255);">
<g>
	<circle cx="50" cy="50" r="30"/>
</g>
</g></g><g transform="translate(660,660) scale(0.3,0.3)"><g transform="" style="fill: rgb(255, 255, 255);">
<g>
	<circle cx="50" cy="50" r="30"/>
</g>
</g></g><g transform="translate(690,660) scale(0.3,0.3)"><g transform="" style="fill: rgb(255, 255, 255);">
<g>
	<circle cx="50" cy="50" r="30"/>
</g>
</g></g><g transform="translate(720,660) scale(0.3,0.3)"><g transform="" style="fill: rgb(255, 255, 255);">
<g>
	<circle cx="50" cy="50" r="30"/>
</g>
</g></g><g transform="translate(300,690) scale(0.3,0.3)"><g transform="" style="fill: rgb(255, 255, 255);">
<g>
	<circle cx="50" cy="50" r="30"/>
</g>
</g></g><g transform="translate(420,690) scale(0.3,0.3)"><g transform="" style="fill: rgb(255, 255, 255);">
<g>
	<circle cx="50" cy="50" r="30"/>
</g>
</g></g><g transform="translate(570,690) scale(0.3,0.3)"><g transform="" style="fill: rgb(255, 255, 255);">
<g>
	<circle cx="50" cy="50" r="30"/>
</g>
</g></g><g transform="translate(600,690) scale(0.3,0.3)"><g transform="" style="fill: rgb(255, 255, 255);">
<g>
	<circle cx="50" cy="50" r="30"/>
</g>
</g></g><g transform="translate(660,690) scale(0.3,0.3)"><g transform="" style="fill: rgb(255, 255, 255);">
<g>
	<circle cx="50" cy="50" r="30"/>
</g>
</g></g><g transform="translate(690,690) scale(0.3,0.3)"><g transform="" style="fill: rgb(255, 255, 255);">
<g>
	<circle cx="50" cy="50" r="30"/>
</g>
</g></g><g transform="translate(720,690) scale(0.3,0.3)"><g transform="" style="fill: rgb(255, 255, 255);">
<g>
	<circle cx="50" cy="50" r="30"/>
</g>
</g></g><g transform="translate(240,720) scale(0.3,0.3)"><g transform="" style="fill: rgb(255, 255, 255);">
<g>
	<circle cx="50" cy="50" r="30"/>
</g>
</g></g><g transform="translate(360,720) scale(0.3,0.3)"><g transform="" style="fill: rgb(255, 255, 255);">
<g>
	<circle cx="50" cy="50" r="30"/>
</g>
</g></g><g transform="translate(390,720) scale(0.3,0.3)"><g transform="" style="fill: rgb(255, 255, 255);">
<g>
	<circle cx="50" cy="50" r="30"/>
</g>
</g></g><g transform="translate(420,720) scale(0.3,0.3)"><g transform="" style="fill: rgb(255, 255, 255);">
<g>
	<circle cx="50" cy="50" r="30"/>
</g>
</g></g><g transform="translate(480,720) scale(0.3,0.3)"><g transform="" style="fill: rgb(255, 255, 255);">
<g>
	<circle cx="50" cy="50" r="30"/>
</g>
</g></g><g transform="translate(510,720) scale(0.3,0.3)"><g transform="" style="fill: rgb(255, 255, 255);">
<g>
	<circle cx="50" cy="50" r="30"/>
</g>
</g></g><g transform="translate(630,720) scale(0.3,0.3)"><g transform="" style="fill: rgb(255, 255, 255);">
<g>
	<circle cx="50" cy="50" r="30"/>
</g>
</g></g><g transform="translate(720,720) scale(0.3,0.3)"><g transform="" style="fill: rgb(255, 255, 255);">
<g>
	<circle cx="50" cy="50" r="30"/>
</g>
</g></g><g transform="translate(0,0) scale(2.0588235294118, 2.0588235294118)"><g transform="" style="fill: rgb(255, 255, 255);">
<g>
	<path style="fill:none;" d="M51,16c-19.299,0-35,15.701-35,35s15.701,35,35,35s35-15.701,35-35S70.299,16,51,16z"/>
	<path d="M51,1C23.387,1,1,23.387,1,51s22.387,50,50,50s50-22.387,50-50S78.613,1,51,1z M51,86c-19.299,0-35-15.701-35-35
		s15.701-35,35-35s35,15.701,35,35S70.299,86,51,86z"/>
</g>
</g></g><g transform="translate(540,0) scale(2.0588235294118, 2.0588235294118)"><g transform="" style="fill: rgb(255, 255, 255);">
<g>
	<path style="fill:none;" d="M51,16c-19.299,0-35,15.701-35,35s15.701,35,35,35s35-15.701,35-35S70.299,16,51,16z"/>
	<path d="M51,1C23.387,1,1,23.387,1,51s22.387,50,50,50s50-22.387,50-50S78.613,1,51,1z M51,86c-19.299,0-35-15.701-35-35
		s15.701-35,35-35s35,15.701,35,35S70.299,86,51,86z"/>
</g>
</g></g><g transform="translate(0,540) scale(2.0588235294118, 2.0588235294118)"><g transform="" style="fill: rgb(255, 255, 255);">
<g>
	<path style="fill:none;" d="M51,16c-19.299,0-35,15.701-35,35s15.701,35,35,35s35-15.701,35-35S70.299,16,51,16z"/>
	<path d="M51,1C23.387,1,1,23.387,1,51s22.387,50,50,50s50-22.387,50-50S78.613,1,51,1z M51,86c-19.299,0-35-15.701-35-35
		s15.701-35,35-35s35,15.701,35,35S70.299,86,51,86z"/>
</g>
</g></g><g transform="translate(60,60) scale(0.9, 0.9)"><g transform="" style="fill: rgb(255, 255, 255);">
<g>
	<path d="M16.68,1C25.339,1,32.36,7.619,32.36,15.782v68.436C32.36,92.382,25.339,99,16.68,99l0,0C8.021,99,1,92.382,1,84.218
		V15.782C1,7.619,8.021,1,16.68,1L16.68,1z"/>
	<path d="M83.32,1C91.979,1,99,7.619,99,15.782v68.436C99,92.382,91.979,99,83.32,99l0,0c-8.661,0-15.68-6.618-15.68-14.782V15.782
		C67.641,7.619,74.659,1,83.32,1L83.32,1z"/>
	<path d="M50,1c8.661,0,15.68,6.619,15.68,14.782v68.436C65.68,92.382,58.661,99,50,99l0,0c-8.661,0-15.68-6.618-15.68-14.782
		V15.782C34.32,7.619,41.339,1,50,1L50,1z"/>
</g>
</g></g><g transform="translate(600,60) scale(0.9, 0.9)"><g transform="" style="fill: rgb(255, 255, 255);">
<g>
	<path d="M16.68,1C25.339,1,32.36,7.619,32.36,15.782v68.436C32.36,92.382,25.339,99,16.68,99l0,0C8.021,99,1,92.382,1,84.218
		V15.782C1,7.619,8.021,1,16.68,1L16.68,1z"/>
	<path d="M83.32,1C91.979,1,99,7.619,99,15.782v68.436C99,92.382,91.979,99,83.32,99l0,0c-8.661,0-15.68-6.618-15.68-14.782V15.782
		C67.641,7.619,74.659,1,83.32,1L83.32,1z"/>
	<path d="M50,1c8.661,0,15.68,6.619,15.68,14.782v68.436C65.68,92.382,58.661,99,50,99l0,0c-8.661,0-15.68-6.618-15.68-14.782
		V15.782C34.32,7.619,41.339,1,50,1L50,1z"/>
</g>
</g></g><g transform="translate(60,600) scale(0.9, 0.9)"><g transform="" style="fill: rgb(255, 255, 255);">
<g>
	<path d="M16.68,1C25.339,1,32.36,7.619,32.36,15.782v68.436C32.36,92.382,25.339,99,16.68,99l0,0C8.021,99,1,92.382,1,84.218
		V15.782C1,7.619,8.021,1,16.68,1L16.68,1z"/>
	<path d="M83.32,1C91.979,1,99,7.619,99,15.782v68.436C99,92.382,91.979,99,83.32,99l0,0c-8.661,0-15.68-6.618-15.68-14.782V15.782
		C67.641,7.619,74.659,1,83.32,1L83.32,1z"/>
	<path d="M50,1c8.661,0,15.68,6.619,15.68,14.782v68.436C65.68,92.382,58.661,99,50,99l0,0c-8.661,0-15.68-6.618-15.68-14.782
		V15.782C34.32,7.619,41.339,1,50,1L50,1z"/>
</g>
</g></g></g></svg>